<?xml version="1.0" encoding="UTF-8"?>
<!DOCTYPE svg PUBLIC "-//W3C//DTD SVG 1.0//EN" "http://www.w3.org/TR/2001/REC-SVG-20010904/DTD/svg10.dtd">
<svg fill-opacity="1" xmlns:xlink="http://www.w3.org/1999/xlink" color-rendering="auto" color-interpolation="auto" text-rendering="auto" stroke="black" stroke-linecap="square" stroke-miterlimit="10" shape-rendering="auto" stroke-opacity="1" fill="black" stroke-dasharray="none" font-weight="normal" stroke-width="1" xmlns="http://www.w3.org/2000/svg" font-family="'Dialog'" font-style="normal" stroke-linejoin="miter" font-size="12" stroke-dashoffset="0" image-rendering="auto">
  <!--Unicode Character 'LATIN CAPITAL LETTER P WITH FLOURISH' (U+A752)-->
  <defs id="genericDefs"/>
  <g>
    <g>
      <path d="M41.0625 365.625 L41.0625 358.3125 L64.6875 351 L64.6875 274.5 L55.125 274.5 Q44.4375 274.5 37.1953 279.0703 Q29.9531 283.6406 25.9453 293.5547 Q21.9375 303.4688 21.0938 312.4688 Q22.6406 312.75 26.9297 315.2109 Q31.2188 317.6719 34.1719 322.5234 Q37.125 327.375 37.125 332.7188 Q37.125 340.3125 34.5938 346.2188 Q32.0625 352.125 27.5625 354.9375 Q23.0625 357.75 16.875 357.75 Q12.9375 357.75 8.9297 355.1484 Q4.9219 352.5469 2.4609 345.8672 Q0 339.1875 0 331.3125 Q0 315.1406 4.6406 297.9141 Q9.2812 280.6875 22.0781 270.2812 Q34.875 259.875 55.125 259.875 L64.6875 259.875 L64.6875 183.375 L41.0625 176.0625 L41.0625 168.75 L129.375 168.75 Q149.625 168.75 162.5625 174.375 Q175.5 180 182.25 192.375 Q189 204.75 189 221.625 Q189 238.5 182.25 250.875 Q175.5 263.25 162.5625 268.875 Q149.625 274.5 129.375 274.5 L91.6875 274.5 L91.6875 351 L115.3125 358.3125 L115.3125 365.625 L41.0625 365.625 ZM91.6875 259.875 L129.375 259.875 Q144.5625 259.875 150.75 254.9531 Q156.9375 250.0312 159.4688 242.2969 Q162 234.5625 162 221.625 Q162 208.6875 159.4688 200.9531 Q156.9375 193.2188 150.75 188.2969 Q144.5625 183.375 129.375 183.375 L91.6875 183.375 L91.6875 259.875 Z" stroke="none"/>
    </g>
  </g>
</svg>